<?xml version="1.0" encoding="UTF-8" standalone="no"?>
<!-- Created with Inkscape (http://www.inkscape.org/) -->

<svg
   width="32"
   height="32"
   viewBox="0 0 8.4666666 8.4666666"
   version="1.1"
   id="svg1"
   xml:space="preserve"
   sodipodi:docname="drawing.svg"
   inkscape:version="1.4.3 (0d15f75, 2025-12-25)"
   xmlns:inkscape="http://www.inkscape.org/namespaces/inkscape"
   xmlns:sodipodi="http://sodipodi.sourceforge.net/DTD/sodipodi-0.dtd"
   xmlns="http://www.w3.org/2000/svg"
   xmlns:svg="http://www.w3.org/2000/svg"><sodipodi:namedview
     id="namedview1"
     pagecolor="#ffffff"
     bordercolor="#000000"
     borderopacity="0.25"
     inkscape:showpageshadow="2"
     inkscape:pageopacity="0.0"
     inkscape:pagecheckerboard="0"
     inkscape:deskcolor="#d1d1d1"
     inkscape:zoom="19.445436"
     inkscape:cx="13.13933"
     inkscape:cy="15.710627"
     inkscape:window-width="1705"
     inkscape:window-height="1186"
     inkscape:window-x="535"
     inkscape:window-y="65"
     inkscape:window-maximized="0"
     inkscape:current-layer="svg1" /><defs
     id="defs1" /><g
     id="layer1"><path
       style="fill:#569e3a;fill-opacity:1;stroke-width:0.0819516"
       d="M 5.0543427,2.5426902 5.4268044,2.7970344 C 8.6582616,1.6709831 5.5718518,-2.2342124 5.0543427,2.5426902 Z"
       id="path4"
       sodipodi:nodetypes="ccc" /><path
       id="path11"
       style="fill:#fff0ff;fill-opacity:1;stroke-width:0.083285"
       d="M 2.9929509,5.5192676 C 2.7184923,5.4008606 2.4753168,5.1383009 2.3094274,4.6516064 c 0,0 -0.4587588,0.1977752 -0.6976753,0.1763294 -0.096463,-0.00866 -0.1950137,-0.037585 -0.2879191,-0.078406 0.062752,0.5936656 0.3211912,1.1035027 0.33839,1.672603 0.00382,0.1262576 -0.043656,0.3549031 -0.059092,0.4771945 z" /><path
       id="path23"
       style="fill:#fff0ff;fill-opacity:1;stroke-width:0.083285"
       d="M 2.9929509,5.5192676 1.6031307,6.8993282 C 1.5516157,7.3074572 1.4468405,7.6791663 1.6488407,7.919081 2.0947667,8.448708 4.3107705,8.008349 5.5292426,6.5964423 5.5562926,6.5650903 5.7091947,6.410402 5.8662871,6.1704213 5.6862628,5.9971327 5.4577506,5.5311506 5.0568599,4.8575407 4.8797595,4.9673511 3.8008155,5.8677966 2.9929509,5.5192676 Z" /><path
       id="path18"
       style="fill:#b561ee;fill-opacity:1;stroke-width:0.083285"
       d="m 1.323833,4.7495308 c 0.092905,0.040821 0.1914562,0.069746 0.2879191,0.078406 0.2389165,0.021436 0.6976753,-0.1763294 0.6976753,-0.1763294 0.6541823,1.919279 2.5101658,0.353049 2.7474325,0.2059343 0.052137,0.8271682 0.6294029,1.1395919 0.8094267,1.3128805 C 6.762622,4.8011324 5.940665,2.9708728 4.3629691,2.6315733 2.6287672,2.2586114 1.1802632,3.3912876 1.323833,4.7495308 Z" /><path
       style="fill:#569e3a;fill-opacity:1;stroke-width:0.0856313"
       d="M 5.6346362,3.0486586 5.8275027,3.2764163 C 8.9191616,3.9107277 7.1633469,1.7426932 5.6346362,3.0486586 Z"
       id="path5"
       sodipodi:nodetypes="ccc" /><path
       id="path18-5"
       style="fill:#000000;fill-opacity:0;stroke-width:0.083285"
       d="M 3.7285279,2.5597189 C 2.2914577,2.5452391 1.1982093,3.5610695 1.323833,4.7495308 1.6497238,4.9069073 1.9938127,4.7776091 2.3094274,4.6516064 2.4753358,5.1383576 2.7184538,5.4008795 2.9929509,5.5192676 3.0794445,3.8992044 3.7285279,2.5597282 4.4506024,2.6521157 4.4216556,2.6447495 4.3924,2.6377934 4.3629239,2.6314659 4.1461482,2.5848445 3.9338208,2.5617995 3.7285257,2.5597275 Z" /><path
       style="fill:#569e3a;fill-opacity:1;stroke-width:0.083285"
       d="m 15.280273,9.4444753 0.344605,0.2079303 c 1.228316,-0.09026 2.269593,-1.4168166 2.081264,-1.5912641 -0.151419,-0.140255 -0.08444,0.00514 -0.08444,0.00514 0,0 -0.373141,-1.2449802 -0.646345,-1.0462551 -0.43001,0.3127732 -1.695083,2.4244524 -1.695083,2.4244524 z"
       id="path4-0" /><path
       style="fill:#569e3a;fill-opacity:1;stroke-width:0.0903765"
       d="m 14.230544,7.4465553 1.190226,-0.088022 a 0.33409882,0.3397057 37.316714 0 1 0.313422,0.4955483 L 14.955661,9.2786359 14.71277,9.2246919 Z"
       id="path3-2" /><path
       style="display:inline;fill:#a9ce43;fill-opacity:1;stroke-width:0.0945848"
       d="m 14.230541,7.4465551 c 1.055079,0.1662304 0.564982,1.2370992 0.7251,1.8320972 l -0.242873,-0.053961 z"
       id="path6-4" /><path
       style="fill:#569e3a;fill-opacity:1;stroke-width:0.083285"
       d="m 16.187015,10.042367 0.162571,0.257101 1.377172,0.09392 0.113084,-0.8928199 a 0.28301025,0.28301025 0 0 0 -0.438129,-0.270789 z"
       id="path5-8" /><path
       id="path4-5-3"
       style="fill:#a9ce43;fill-opacity:1;stroke-width:0.083285"
       d="m 15.280275,9.4444777 v 0.00519 l 0.344605,0.2027401 c 1.228316,-0.09026 2.72236,-1.4886244 2.534031,-1.6630715 -0.711163,-0.4010874 -2.284162,1.1480343 -2.878636,1.4603353 z" /><path
       id="path11-9"
       style="fill:#fff0ff;fill-opacity:1;stroke-width:0.083285"
       d="m 13.278071,12.311193 c -0.274458,-0.118408 -0.517634,-0.380967 -0.683523,-0.867662 0,0 -0.458759,0.197776 -0.697676,0.17633 -0.09646,-0.0087 -0.195013,-0.03758 -0.287919,-0.07841 0.06275,0.593665 0.321191,1.103502 0.33839,1.672603 0.0038,0.126257 -0.04366,0.354903 -0.05909,0.477194 z" /><path
       id="path23-0"
       style="fill:#fcdcfc;fill-opacity:1;stroke-width:0.083285"
       d="m 13.278071,12.311193 -1.38982,1.38006 c -0.05152,0.408129 -0.15629,0.779838 0.04571,1.019753 0.445926,0.529627 2.66193,0.08927 3.880402,-1.322639 0.02705,-0.03135 0.179952,-0.18604 0.337044,-0.426021 -0.180024,-0.173288 -0.408536,-0.63927 -0.809427,-1.31288 -0.1771,0.10981 -1.256044,1.010255 -2.063909,0.661727 z" /><path
       style="display:inline;fill:#a9ce43;fill-opacity:1;stroke-width:0.083285"
       d="m 16.187014,10.042366 0.146956,0.267513 1.392787,0.08351 0.113081,-0.8928195 z"
       id="path8-5" /><path
       id="path18-2"
       style="fill:#b561ee;fill-opacity:1;stroke-width:0.083285"
       d="m 11.608953,11.541456 c 0.09291,0.04082 0.191456,0.06975 0.287919,0.07841 0.238917,0.02144 0.697676,-0.17633 0.697676,-0.17633 0.654182,1.919279 2.510165,0.353049 2.747432,0.205935 0.05214,0.827168 0.629403,1.139591 0.809427,1.31288 0.896335,-1.36929 0.07438,-3.1995498 -1.503318,-3.5388493 -1.734202,-0.3729659 -3.182706,0.7597103 -3.039136,2.1179543 z" /><path
       id="path18-5-2"
       style="fill:#da83ff;fill-opacity:0.645161;stroke-width:0.083285"
       d="m 14.013648,9.3516433 c -1.43707,-0.01448 -2.530318,1.0013507 -2.404695,2.1898127 0.325891,0.157376 0.66998,0.02808 0.985595,-0.09793 0.165908,0.486752 0.409026,0.749273 0.683523,0.867662 0.08649,-1.620064 0.735577,-2.9595404 1.457652,-2.8671529 -0.02895,-0.00737 -0.0582,-0.014322 -0.08768,-0.02065 -0.216776,-0.046621 -0.429103,-0.069666 -0.634398,-0.071738 z" /></g></svg>
